<svg xmlns="http://www.w3.org/2000/svg" xmlns:v="https://svgstorm.com"
viewBox = "0 0 512 512"
width="512"
height="512">
<g fill="None" fill-opacity="0.0" stroke="#000000" stroke-opacity="0.00" stroke-width="0.3"><path d="
M 0.00 512.00 
L 512.00 512.00
L 512.00 0.00
L 0.00 0.00
L 0.00 512.00
M 139.00 119.00 
C 146.20 124.24 153.08 129.54 160.23 134.77 C 167.38 140.00 174.08 145.47 181.25 150.75 C 188.41 156.04 195.26 160.94 202.25 166.75 C 209.23 172.57 216.78 175.91 223.70 182.30 C 230.62 188.70 237.75 190.90 244.75 198.25 C 251.74 205.61 259.68 206.29 266.75 198.75 C 273.81 191.20 280.72 189.15 287.75 182.75 C 294.78 176.35 302.08 172.97 309.08 167.08 C 316.08 161.20 323.10 156.66 330.23 151.23 C 337.36 145.80 344.02 140.55 351.25 135.25 C 358.47 129.94 365.72 124.30 373.00 119.00
C 397.74 100.97 415.61 76.76 450.22 87.78 C 484.83 98.80 480.00 142.55 480.00 173.00
C 480.00 196.74 479.80 221.35 480.00 245.00 C 480.20 268.66 479.48 293.66 480.00 317.00 C 480.52 340.34 478.80 366.42 480.00 389.00 C 481.20 411.58 469.09 427.24 446.00 427.00 C 422.91 426.76 396.40 427.18 373.00 427.00
C 373.00 369.33 373.00 311.67 373.00 254.00
C 366.98 260.41 358.38 264.01 351.77 269.77 C 345.16 275.53 337.67 280.24 330.75 285.75 C 323.84 291.27 316.62 295.86 309.75 301.75 C 302.89 307.64 295.15 310.93 288.30 317.30 C 281.46 323.68 274.16 326.04 267.25 333.25 C 260.35 340.47 252.26 341.20 245.30 333.70 C 238.35 326.19 231.32 323.92 224.25 317.75 C 217.18 311.57 210.23 307.61 203.25 301.75 C 196.27 295.89 188.78 291.89 181.92 286.08 C 175.06 280.27 167.57 276.00 160.77 270.23 C 153.97 264.46 145.65 259.87 139.00 254.00
C 143.06 282.21 136.90 311.47 139.00 340.00 C 141.10 368.53 137.43 398.35 139.00 427.00
C 112.67 427.00 86.33 427.00 60.00 427.00
C 38.01 425.26 30.57 405.97 32.00 385.00 C 33.43 364.03 31.37 336.32 32.00 314.00 C 32.63 291.68 31.77 266.92 32.00 244.00 C 32.23 221.08 32.00 196.10 32.00 173.00
C 32.00 142.55 26.88 99.80 61.02 88.02 C 95.17 76.25 114.48 101.13 139.00 119.00 Z"/>
</g>
<g fill="None" fill-opacity="0.0" stroke="#C52828" stroke-opacity="0.99" stroke-width="0.3"><path d="
M 32.00 173.00 
C 34.46 178.63 45.03 180.64 49.25 185.75 C 53.47 190.87 62.06 194.15 67.08 198.92 C 72.10 203.69 78.77 207.29 84.23 211.77 C 89.69 216.25 96.24 220.64 101.75 225.25 C 107.26 229.85 113.77 233.03 119.08 237.92 C 124.39 242.80 131.80 246.23 137.00 251.00
C 139.97 230.32 138.93 206.89 139.00 185.00 C 139.07 163.11 138.90 140.06 139.00 119.00
C 114.48 101.13 95.17 76.25 61.02 88.02 C 26.88 99.80 32.00 142.55 32.00 173.00 Z"/>
</g>
<g fill="None" fill-opacity="0.0" stroke="#FABF2D" stroke-opacity="0.99" stroke-width="0.3"><path d="
M 373.00 119.00 
C 369.92 126.57 374.33 136.67 373.00 145.00 C 371.67 153.33 373.59 163.30 373.00 172.00 C 372.41 180.70 373.26 190.14 373.00 199.00 C 372.74 207.86 373.10 217.07 373.00 226.00 C 372.90 234.93 373.00 244.05 373.00 253.00
C 377.97 247.70 385.27 244.48 390.75 239.75 C 396.22 235.02 402.70 230.95 408.25 226.25 C 413.79 221.55 420.80 217.99 426.23 213.23 C 431.66 208.47 438.68 204.66 443.75 199.75 C 448.82 194.84 457.50 192.00 461.70 186.70 C 465.89 181.39 477.50 178.73 480.00 173.00
C 480.00 142.55 484.83 98.80 450.22 87.78 C 415.61 76.76 397.74 100.97 373.00 119.00 Z"/>
</g>
<g fill="None" fill-opacity="0.0" stroke="#E53834" stroke-opacity="0.99" stroke-width="0.3"><path d="
M 137.00 251.00 
C 137.50 251.46 137.59 252.57 138.00 253.00
C 138.24 253.26 138.74 253.77 139.00 254.00
C 145.65 259.87 153.97 264.46 160.77 270.23 C 167.57 276.00 175.06 280.27 181.92 286.08 C 188.78 291.89 196.27 295.89 203.25 301.75 C 210.23 307.61 217.18 311.57 224.25 317.75 C 231.32 323.92 238.35 326.19 245.30 333.70 C 252.26 341.20 260.35 340.47 267.25 333.25 C 274.16 326.04 281.46 323.68 288.30 317.30 C 295.15 310.93 302.89 307.64 309.75 301.75 C 316.62 295.86 323.84 291.27 330.75 285.75 C 337.67 280.24 345.16 275.53 351.77 269.77 C 358.38 264.01 366.98 260.41 373.00 254.00
C 373.00 253.50 373.00 253.00 373.00 253.00
C 373.00 244.05 372.90 234.93 373.00 226.00 C 373.10 217.07 372.74 207.86 373.00 199.00 C 373.26 190.14 372.41 180.70 373.00 172.00 C 373.59 163.30 371.67 153.33 373.00 145.00 C 374.33 136.67 369.92 126.57 373.00 119.00
C 365.72 124.30 358.47 129.94 351.25 135.25 C 344.02 140.55 337.36 145.80 330.23 151.23 C 323.10 156.66 316.08 161.20 309.08 167.08 C 302.08 172.97 294.78 176.35 287.75 182.75 C 280.72 189.15 273.81 191.20 266.75 198.75 C 259.68 206.29 251.74 205.61 244.75 198.25 C 237.75 190.90 230.62 188.70 223.70 182.30 C 216.78 175.91 209.23 172.57 202.25 166.75 C 195.26 160.94 188.41 156.04 181.25 150.75 C 174.08 145.47 167.38 140.00 160.23 134.77 C 153.08 129.54 146.20 124.24 139.00 119.00
C 138.90 140.06 139.07 163.11 139.00 185.00 C 138.93 206.89 139.97 230.32 137.00 251.00 Z"/>
</g>
<g fill="None" fill-opacity="0.0" stroke="#1E87E4" stroke-opacity="1.00" stroke-width="0.3"><path d="
M 60.00 427.00 
C 85.13 426.56 112.13 425.25 138.00 426.00
C 138.00 368.33 138.00 310.67 138.00 253.00
C 137.59 252.57 137.50 251.46 137.00 251.00
C 131.80 246.23 124.39 242.80 119.08 237.92 C 113.77 233.03 107.26 229.85 101.75 225.25 C 96.24 220.64 89.69 216.25 84.23 211.77 C 78.77 207.29 72.10 203.69 67.08 198.92 C 62.06 194.15 53.47 190.87 49.25 185.75 C 45.03 180.64 34.46 178.63 32.00 173.00
C 32.00 196.10 32.23 221.08 32.00 244.00 C 31.77 266.92 32.63 291.68 32.00 314.00 C 31.37 336.32 33.43 364.03 32.00 385.00 C 30.57 405.97 38.01 425.26 60.00 427.00 Z"/>
</g>
<g fill="None" fill-opacity="0.0" stroke="#4CAF4F" stroke-opacity="1.00" stroke-width="0.3"><path d="
M 373.00 253.00 
C 373.00 253.00 373.00 253.50 373.00 254.00
C 373.00 311.67 373.00 369.33 373.00 427.00
C 396.40 427.18 422.91 426.76 446.00 427.00 C 469.09 427.24 481.20 411.58 480.00 389.00 C 478.80 366.42 480.52 340.34 480.00 317.00 C 479.48 293.66 480.20 268.66 480.00 245.00 C 479.80 221.35 480.00 196.74 480.00 173.00
C 477.50 178.73 465.89 181.39 461.70 186.70 C 457.50 192.00 448.82 194.84 443.75 199.75 C 438.68 204.66 431.66 208.47 426.23 213.23 C 420.80 217.99 413.79 221.55 408.25 226.25 C 402.70 230.95 396.22 235.02 390.75 239.75 C 385.27 244.48 377.97 247.70 373.00 253.00 Z"/>
</g>
<g fill="None" fill-opacity="0.0" stroke="#1E88E5" stroke-opacity="0.66" stroke-width="0.3"><path d="
M 60.00 427.00 
C 86.33 427.00 112.67 427.00 139.00 427.00
C 137.43 398.35 141.10 368.53 139.00 340.00 C 136.90 311.47 143.06 282.21 139.00 254.00
C 138.74 253.77 138.24 253.26 138.00 253.00
C 138.00 310.67 138.00 368.33 138.00 426.00
C 112.13 425.25 85.13 426.56 60.00 427.00 Z"/>
</g>
<g fill="#000000" fill-opacity="0.00" stroke="None">
<path d="
M 0.00 512.00 
L 512.00 512.00
L 512.00 0.00
L 0.00 0.00
L 0.00 512.00
M 139.00 119.00 
C 146.20 124.24 153.08 129.54 160.23 134.77 C 167.38 140.00 174.08 145.47 181.25 150.75 C 188.41 156.04 195.26 160.94 202.25 166.75 C 209.23 172.57 216.78 175.91 223.70 182.30 C 230.62 188.70 237.75 190.90 244.75 198.25 C 251.74 205.61 259.68 206.29 266.75 198.75 C 273.81 191.20 280.72 189.15 287.75 182.75 C 294.78 176.35 302.08 172.97 309.08 167.08 C 316.08 161.20 323.10 156.66 330.23 151.23 C 337.36 145.80 344.02 140.55 351.25 135.25 C 358.47 129.94 365.72 124.30 373.00 119.00
C 397.74 100.97 415.61 76.76 450.22 87.78 C 484.83 98.80 480.00 142.55 480.00 173.00
C 480.00 196.74 479.80 221.35 480.00 245.00 C 480.20 268.66 479.48 293.66 480.00 317.00 C 480.52 340.34 478.80 366.42 480.00 389.00 C 481.20 411.58 469.09 427.24 446.00 427.00 C 422.91 426.76 396.40 427.18 373.00 427.00
C 373.00 369.33 373.00 311.67 373.00 254.00
C 366.98 260.41 358.38 264.01 351.77 269.77 C 345.16 275.53 337.67 280.24 330.75 285.75 C 323.84 291.27 316.62 295.86 309.75 301.75 C 302.89 307.64 295.15 310.93 288.30 317.30 C 281.46 323.68 274.16 326.04 267.25 333.25 C 260.35 340.47 252.26 341.20 245.30 333.70 C 238.35 326.19 231.32 323.92 224.25 317.75 C 217.18 311.57 210.23 307.61 203.25 301.75 C 196.27 295.89 188.78 291.89 181.92 286.08 C 175.06 280.27 167.57 276.00 160.77 270.23 C 153.97 264.46 145.65 259.87 139.00 254.00
C 143.06 282.21 136.90 311.47 139.00 340.00 C 141.10 368.53 137.43 398.35 139.00 427.00
C 112.67 427.00 86.33 427.00 60.00 427.00
C 38.01 425.26 30.57 405.97 32.00 385.00 C 33.43 364.03 31.37 336.32 32.00 314.00 C 32.63 291.68 31.77 266.92 32.00 244.00 C 32.23 221.08 32.00 196.10 32.00 173.00
C 32.00 142.55 26.88 99.80 61.02 88.02 C 95.17 76.25 114.48 101.13 139.00 119.00 Z"/>
</g>
<g fill="#C52828" fill-opacity="0.99" stroke="None">
<path d="
M 32.00 173.00 
C 34.46 178.63 45.03 180.64 49.25 185.75 C 53.47 190.87 62.06 194.15 67.08 198.92 C 72.10 203.69 78.77 207.29 84.23 211.77 C 89.69 216.25 96.24 220.64 101.75 225.25 C 107.26 229.85 113.77 233.03 119.08 237.92 C 124.39 242.80 131.80 246.23 137.00 251.00
C 139.97 230.32 138.93 206.89 139.00 185.00 C 139.07 163.11 138.90 140.06 139.00 119.00
C 114.48 101.13 95.17 76.25 61.02 88.02 C 26.88 99.80 32.00 142.55 32.00 173.00 Z"/>
</g>
<g fill="#FABF2D" fill-opacity="0.99" stroke="None">
<path d="
M 373.00 119.00 
C 369.92 126.57 374.33 136.67 373.00 145.00 C 371.67 153.33 373.59 163.30 373.00 172.00 C 372.41 180.70 373.26 190.14 373.00 199.00 C 372.74 207.86 373.10 217.07 373.00 226.00 C 372.90 234.93 373.00 244.05 373.00 253.00
C 377.97 247.70 385.27 244.48 390.75 239.75 C 396.22 235.02 402.70 230.95 408.25 226.25 C 413.79 221.55 420.80 217.99 426.23 213.23 C 431.66 208.47 438.68 204.66 443.75 199.75 C 448.82 194.84 457.50 192.00 461.70 186.70 C 465.89 181.39 477.50 178.73 480.00 173.00
C 480.00 142.55 484.83 98.80 450.22 87.78 C 415.61 76.76 397.74 100.97 373.00 119.00 Z"/>
</g>
<g fill="#E53834" fill-opacity="0.99" stroke="None">
<path d="
M 137.00 251.00 
C 137.50 251.46 137.59 252.57 138.00 253.00
C 138.24 253.26 138.74 253.77 139.00 254.00
C 145.65 259.87 153.97 264.46 160.77 270.23 C 167.57 276.00 175.06 280.27 181.92 286.08 C 188.78 291.89 196.27 295.89 203.25 301.75 C 210.23 307.61 217.18 311.57 224.25 317.75 C 231.32 323.92 238.35 326.19 245.30 333.70 C 252.26 341.20 260.35 340.47 267.25 333.25 C 274.16 326.04 281.46 323.68 288.30 317.30 C 295.15 310.93 302.89 307.64 309.75 301.75 C 316.62 295.86 323.84 291.27 330.75 285.75 C 337.67 280.24 345.16 275.53 351.77 269.77 C 358.38 264.01 366.98 260.41 373.00 254.00
C 373.00 253.50 373.00 253.00 373.00 253.00
C 373.00 244.05 372.90 234.93 373.00 226.00 C 373.10 217.07 372.74 207.86 373.00 199.00 C 373.26 190.14 372.41 180.70 373.00 172.00 C 373.59 163.30 371.67 153.33 373.00 145.00 C 374.33 136.67 369.92 126.57 373.00 119.00
C 365.72 124.30 358.47 129.94 351.25 135.25 C 344.02 140.55 337.36 145.80 330.23 151.23 C 323.10 156.66 316.08 161.20 309.08 167.08 C 302.08 172.97 294.78 176.35 287.75 182.75 C 280.72 189.15 273.81 191.20 266.75 198.75 C 259.68 206.29 251.74 205.61 244.75 198.25 C 237.75 190.90 230.62 188.70 223.70 182.30 C 216.78 175.91 209.23 172.57 202.25 166.75 C 195.26 160.94 188.41 156.04 181.25 150.75 C 174.08 145.47 167.38 140.00 160.23 134.77 C 153.08 129.54 146.20 124.24 139.00 119.00
C 138.90 140.06 139.07 163.11 139.00 185.00 C 138.93 206.89 139.97 230.32 137.00 251.00 Z"/>
</g>
<g fill="#1E87E4" fill-opacity="1.00" stroke="None">
<path d="
M 60.00 427.00 
C 85.13 426.56 112.13 425.25 138.00 426.00
C 138.00 368.33 138.00 310.67 138.00 253.00
C 137.59 252.57 137.50 251.46 137.00 251.00
C 131.80 246.23 124.39 242.80 119.08 237.92 C 113.77 233.03 107.26 229.85 101.75 225.25 C 96.24 220.64 89.69 216.25 84.23 211.77 C 78.77 207.29 72.10 203.69 67.08 198.92 C 62.06 194.15 53.47 190.87 49.25 185.75 C 45.03 180.64 34.46 178.63 32.00 173.00
C 32.00 196.10 32.23 221.08 32.00 244.00 C 31.77 266.92 32.63 291.68 32.00 314.00 C 31.37 336.32 33.43 364.03 32.00 385.00 C 30.57 405.97 38.01 425.26 60.00 427.00 Z"/>
</g>
<g fill="#4CAF4F" fill-opacity="1.00" stroke="None">
<path d="
M 373.00 253.00 
C 373.00 253.00 373.00 253.50 373.00 254.00
C 373.00 311.67 373.00 369.33 373.00 427.00
C 396.40 427.18 422.91 426.76 446.00 427.00 C 469.09 427.24 481.20 411.58 480.00 389.00 C 478.80 366.42 480.52 340.34 480.00 317.00 C 479.48 293.66 480.20 268.66 480.00 245.00 C 479.80 221.35 480.00 196.74 480.00 173.00
C 477.50 178.73 465.89 181.39 461.70 186.70 C 457.50 192.00 448.82 194.84 443.75 199.75 C 438.68 204.66 431.66 208.47 426.23 213.23 C 420.80 217.99 413.79 221.55 408.25 226.25 C 402.70 230.95 396.22 235.02 390.75 239.75 C 385.27 244.48 377.97 247.70 373.00 253.00 Z"/>
</g>
<g fill="#1E88E5" fill-opacity="0.66" stroke="None">
<path d="
M 60.00 427.00 
C 86.33 427.00 112.67 427.00 139.00 427.00
C 137.43 398.35 141.10 368.53 139.00 340.00 C 136.90 311.47 143.06 282.21 139.00 254.00
C 138.74 253.77 138.24 253.26 138.00 253.00
C 138.00 310.67 138.00 368.33 138.00 426.00
C 112.13 425.25 85.13 426.56 60.00 427.00 Z"/>
</g>
</svg>