<svg xmlns="http://www.w3.org/2000/svg" xmlns:v="https://svgstorm.com"
viewBox = "0 0 512 512"
width="512"
height="512">
<g fill="None" fill-opacity="0.0" stroke="#000000" stroke-opacity="0.00" stroke-width="0.3"><path d="
M 0.00 512.00 
L 512.00 512.00
L 512.00 0.00
L 0.00 0.00
L 0.00 512.00
M 69.00 358.00 
C 61.27 346.36 57.08 335.06 52.68 321.32 C 48.27 307.59 44.47 291.76 43.22 276.78 C 41.98 261.79 42.38 241.76 44.00 227.00 C 45.62 212.24 50.54 197.29 54.93 183.93 C 59.31 170.56 64.99 159.42 71.77 147.77 C 78.55 136.12 85.59 126.38 94.25 116.25 C 102.91 106.12 111.26 97.84 121.75 89.75 C 132.23 81.66 141.20 74.62 153.23 68.23 C 165.26 61.84 177.58 56.50 191.07 52.07 C 204.57 47.65 220.11 44.90 235.01 43.01 C 249.90 41.11 271.28 42.10 286.00 44.00 C 300.72 45.90 315.76 50.38 329.07 54.93 C 342.38 59.47 353.64 64.95 365.23 71.77 C 376.82 78.59 386.42 85.84 396.25 94.75 C 406.08 103.67 414.51 110.75 422.75 121.25 C 431.00 131.75 437.40 141.86 444.25 153.75 C 451.11 165.63 455.63 178.48 459.98 192.02 C 464.32 205.57 467.70 221.02 469.00 236.00 C 470.29 250.98 470.35 272.35 468.00 287.00 C 465.65 301.65 461.76 315.85 457.07 329.07 C 452.39 342.30 446.44 354.03 439.70 365.70 C 432.95 377.36 425.74 386.07 417.25 396.25 C 408.75 406.43 400.19 414.58 389.75 422.75 C 379.31 430.92 369.29 437.87 357.30 444.30 C 345.32 450.74 333.60 455.78 319.93 459.93 C 306.25 464.07 290.14 467.82 274.98 468.98 C 259.81 470.13 240.93 469.51 225.93 467.07 C 210.92 464.63 196.32 462.77 182.32 456.68 C 168.32 450.59 157.96 444.21 142.93 449.93 C 127.89 455.64 116.67 455.76 100.93 460.93 C 85.18 466.09 75.54 466.74 57.98 471.98 C 40.41 477.21 39.20 455.77 45.78 442.78 C 52.35 429.78 51.62 413.47 56.99 399.99 C 62.36 386.51 63.70 371.54 69.00 358.00 Z"/>
</g>
<g fill="None" fill-opacity="0.0" stroke="#CFD8DC" stroke-opacity="0.95" stroke-width="0.3"><path d="
M 69.00 358.00 
C 63.70 371.54 62.36 386.51 56.99 399.99 C 51.62 413.47 52.35 429.78 45.78 442.78 C 39.20 455.77 40.41 477.21 57.98 471.98 C 75.54 466.74 85.18 466.09 100.93 460.93 C 116.67 455.76 127.89 455.64 142.93 449.93 C 157.96 444.21 168.32 450.59 182.32 456.68 C 196.32 462.77 210.92 464.63 225.93 467.07 C 240.93 469.51 259.81 470.13 274.98 468.98 C 290.14 467.82 306.25 464.07 319.93 459.93 C 333.60 455.78 345.32 450.74 357.30 444.30 C 369.29 437.87 379.31 430.92 389.75 422.75 C 400.19 414.58 408.75 406.43 417.25 396.25 C 425.74 386.07 432.95 377.36 439.70 365.70 C 446.44 354.03 452.39 342.30 457.07 329.07 C 461.76 315.85 465.65 301.65 468.00 287.00 C 470.35 272.35 470.29 250.98 469.00 236.00 C 467.70 221.02 464.32 205.57 459.98 192.02 C 455.63 178.48 451.11 165.63 444.25 153.75 C 437.40 141.86 431.00 131.75 422.75 121.25 C 414.51 110.75 406.08 103.67 396.25 94.75 C 386.42 85.84 376.82 78.59 365.23 71.77 C 353.64 64.95 342.38 59.47 329.07 54.93 C 315.76 50.38 300.72 45.90 286.00 44.00 C 271.28 42.10 249.90 41.11 235.01 43.01 C 220.11 44.90 204.57 47.65 191.07 52.07 C 177.58 56.50 165.26 61.84 153.23 68.23 C 141.20 74.62 132.23 81.66 121.75 89.75 C 111.26 97.84 102.91 106.12 94.25 116.25 C 85.59 126.38 78.55 136.12 71.77 147.77 C 64.99 159.42 59.31 170.56 54.93 183.93 C 50.54 197.29 45.62 212.24 44.00 227.00 C 42.38 241.76 41.98 261.79 43.22 276.78 C 44.47 291.76 48.27 307.59 52.68 321.32 C 57.08 335.06 61.27 346.36 69.00 358.00
M 52.00 462.00 
C 57.43 441.46 62.84 421.24 68.78 400.78 C 74.71 380.31 83.94 360.03 72.23 340.77 C 60.52 321.51 59.06 300.71 55.00 279.00 C 50.95 257.29 55.23 228.01 59.78 207.78 C 64.32 187.54 72.07 168.70 82.75 151.75 C 93.44 134.81 102.69 121.45 117.75 107.75 C 132.81 94.05 146.13 84.82 164.23 75.23 C 182.33 65.63 202.19 60.15 223.02 56.02 C 243.86 51.90 274.37 52.58 295.00 57.00 C 315.63 61.42 335.22 68.01 353.08 77.92 C 370.93 87.84 383.75 97.37 398.25 111.75 C 412.74 126.13 422.07 138.16 432.30 155.70 C 442.54 173.24 449.23 192.65 453.98 213.02 C 458.72 233.40 460.58 263.92 457.00 285.00 C 453.42 306.08 447.34 325.90 438.23 344.23 C 429.12 362.56 419.97 376.45 406.70 391.70 C 393.42 406.94 380.11 416.93 363.31 427.31 C 346.50 437.68 328.74 446.90 308.77 451.77 C 288.80 456.64 258.81 460.91 237.00 458.00 C 215.19 455.09 194.30 451.71 174.77 441.23 C 155.24 430.75 135.11 439.86 114.33 445.33 C 93.55 450.80 72.89 456.75 52.00 462.00 Z"/>
</g>
<g fill="None" fill-opacity="0.0" stroke="#FEFEFE" stroke-opacity="1.00" stroke-width="0.3"><path d="
M 52.00 462.00 
C 72.89 456.75 93.55 450.80 114.33 445.33 C 135.11 439.86 155.24 430.75 174.77 441.23 C 194.30 451.71 215.19 455.09 237.00 458.00 C 258.81 460.91 288.80 456.64 308.77 451.77 C 328.74 446.90 346.50 437.68 363.31 427.31 C 380.11 416.93 393.42 406.94 406.70 391.70 C 419.97 376.45 429.12 362.56 438.23 344.23 C 447.34 325.90 453.42 306.08 457.00 285.00 C 460.58 263.92 458.72 233.40 453.98 213.02 C 449.23 192.65 442.54 173.24 432.30 155.70 C 422.07 138.16 412.74 126.13 398.25 111.75 C 383.75 97.37 370.93 87.84 353.08 77.92 C 335.22 68.01 315.63 61.42 295.00 57.00 C 274.37 52.58 243.86 51.90 223.02 56.02 C 202.19 60.15 182.33 65.63 164.23 75.23 C 146.13 84.82 132.81 94.05 117.75 107.75 C 102.69 121.45 93.44 134.81 82.75 151.75 C 72.07 168.70 64.32 187.54 59.78 207.78 C 55.23 228.01 50.95 257.29 55.00 279.00 C 59.06 300.71 60.52 321.51 72.23 340.77 C 83.94 360.03 74.71 380.31 68.78 400.78 C 62.84 421.24 57.43 441.46 52.00 462.00
M 165.00 397.00 
C 143.73 402.84 122.25 408.02 101.00 414.00
C 103.94 396.30 110.69 379.10 114.78 361.78 C 118.86 344.46 104.19 332.36 98.68 315.32 C 93.16 298.28 88.08 279.07 88.00 260.00 C 87.92 240.93 90.55 218.51 96.78 201.78 C 103.00 185.04 109.37 171.34 119.75 157.75 C 130.13 144.17 138.29 134.35 151.75 123.75 C 165.22 113.15 177.92 105.55 194.22 99.22 C 210.53 92.90 230.77 87.96 249.01 87.01 C 267.25 86.05 290.52 89.84 307.02 94.98 C 323.53 100.11 338.02 107.71 351.75 117.25 C 365.47 126.80 376.16 136.04 386.75 149.25 C 397.35 162.45 404.44 174.34 411.77 190.23 C 419.10 206.12 422.28 226.92 424.00 245.00 C 425.72 263.08 423.03 287.00 417.68 303.68 C 412.32 320.35 406.17 334.76 396.70 348.70 C 387.22 362.63 378.01 372.80 365.25 384.25 C 352.49 395.69 339.77 402.67 323.92 409.92 C 308.08 417.18 290.37 422.16 271.98 423.98 C 253.58 425.79 227.93 423.16 210.93 418.07 C 193.92 412.99 179.20 407.21 165.00 397.00 Z"/>
</g>
<g fill="None" fill-opacity="0.0" stroke="#41C352" stroke-opacity="1.00" stroke-width="0.3"><path d="
M 165.00 397.00 
C 179.20 407.21 193.92 412.99 210.93 418.07 C 227.93 423.16 253.58 425.79 271.98 423.98 C 290.37 422.16 308.08 417.18 323.92 409.92 C 339.77 402.67 352.49 395.69 365.25 384.25 C 378.01 372.80 387.22 362.63 396.70 348.70 C 406.17 334.76 412.32 320.35 417.68 303.68 C 423.03 287.00 425.72 263.08 424.00 245.00 C 422.28 226.92 419.10 206.12 411.77 190.23 C 404.44 174.34 397.35 162.45 386.75 149.25 C 376.16 136.04 365.47 126.80 351.75 117.25 C 338.02 107.71 323.53 100.11 307.02 94.98 C 290.52 89.84 267.25 86.05 249.01 87.01 C 230.77 87.96 210.53 92.90 194.22 99.22 C 177.92 105.55 165.22 113.15 151.75 123.75 C 138.29 134.35 130.13 144.17 119.75 157.75 C 109.37 171.34 103.00 185.04 96.78 201.78 C 90.55 218.51 87.92 240.93 88.00 260.00 C 88.08 279.07 93.16 298.28 98.68 315.32 C 104.19 332.36 118.86 344.46 114.78 361.78 C 110.69 379.10 103.94 396.30 101.00 414.00
C 122.25 408.02 143.73 402.84 165.00 397.00
M 199.00 163.00 
C 208.41 165.86 208.06 182.66 212.98 190.02 C 217.89 197.39 223.74 212.26 219.69 220.69 C 215.65 229.13 201.67 236.73 206.92 246.08 C 212.18 255.42 217.87 262.21 224.75 270.25 C 231.63 278.29 238.71 283.94 247.08 289.92 C 255.46 295.90 263.52 300.15 273.23 304.77 C 282.94 309.39 292.16 302.00 297.25 291.25 C 302.35 280.51 313.88 279.61 323.70 286.31 C 333.51 293.00 341.92 293.95 352.08 299.92 C 362.23 305.90 359.21 320.82 354.08 330.08 C 348.94 339.33 341.12 343.83 331.77 348.77 C 322.42 353.72 306.40 353.75 295.98 351.02 C 285.55 348.30 273.89 344.80 263.98 341.02 C 254.06 337.25 245.10 331.97 236.25 326.75 C 227.41 321.52 220.37 315.07 212.75 308.25 C 205.14 301.43 198.67 295.81 192.25 287.75 C 185.82 279.69 180.41 272.31 174.25 263.75 C 168.08 255.20 163.71 246.96 159.08 236.92 C 154.45 226.88 152.45 213.44 154.00 202.00 C 155.55 190.55 160.25 182.46 167.25 173.25 C 174.25 164.04 186.78 159.29 199.00 163.00 Z"/>
</g>
<g fill="None" fill-opacity="0.0" stroke="#FEFEFE" stroke-opacity="1.00" stroke-width="0.3"><path d="
M 199.00 163.00 
C 186.78 159.29 174.25 164.04 167.25 173.25 C 160.25 182.46 155.55 190.55 154.00 202.00 C 152.45 213.44 154.45 226.88 159.08 236.92 C 163.71 246.96 168.08 255.20 174.25 263.75 C 180.41 272.31 185.82 279.69 192.25 287.75 C 198.67 295.81 205.14 301.43 212.75 308.25 C 220.37 315.07 227.41 321.52 236.25 326.75 C 245.10 331.97 254.06 337.25 263.98 341.02 C 273.89 344.80 285.55 348.30 295.98 351.02 C 306.40 353.75 322.42 353.72 331.77 348.77 C 341.12 343.83 348.94 339.33 354.08 330.08 C 359.21 320.82 362.23 305.90 352.08 299.92 C 341.92 293.95 333.51 293.00 323.70 286.31 C 313.88 279.61 302.35 280.51 297.25 291.25 C 292.16 302.00 282.94 309.39 273.23 304.77 C 263.52 300.15 255.46 295.90 247.08 289.92 C 238.71 283.94 231.63 278.29 224.75 270.25 C 217.87 262.21 212.18 255.42 206.92 246.08 C 201.67 236.73 215.65 229.13 219.69 220.69 C 223.74 212.26 217.89 197.39 212.98 190.02 C 208.06 182.66 208.41 165.86 199.00 163.00 Z"/>
</g>
<g fill="#000000" fill-opacity="0.00" stroke="None">
<path d="
M 0.00 512.00 
L 512.00 512.00
L 512.00 0.00
L 0.00 0.00
L 0.00 512.00
M 69.00 358.00 
C 61.27 346.36 57.08 335.06 52.68 321.32 C 48.27 307.59 44.47 291.76 43.22 276.78 C 41.98 261.79 42.38 241.76 44.00 227.00 C 45.62 212.24 50.54 197.29 54.93 183.93 C 59.31 170.56 64.99 159.42 71.77 147.77 C 78.55 136.12 85.59 126.38 94.25 116.25 C 102.91 106.12 111.26 97.84 121.75 89.75 C 132.23 81.66 141.20 74.62 153.23 68.23 C 165.26 61.84 177.58 56.50 191.07 52.07 C 204.57 47.65 220.11 44.90 235.01 43.01 C 249.90 41.11 271.28 42.10 286.00 44.00 C 300.72 45.90 315.76 50.38 329.07 54.93 C 342.38 59.47 353.64 64.95 365.23 71.77 C 376.82 78.59 386.42 85.84 396.25 94.75 C 406.08 103.67 414.51 110.75 422.75 121.25 C 431.00 131.75 437.40 141.86 444.25 153.75 C 451.11 165.63 455.63 178.48 459.98 192.02 C 464.32 205.57 467.70 221.02 469.00 236.00 C 470.29 250.98 470.35 272.35 468.00 287.00 C 465.65 301.65 461.76 315.85 457.07 329.07 C 452.39 342.30 446.44 354.03 439.70 365.70 C 432.95 377.36 425.74 386.07 417.25 396.25 C 408.75 406.43 400.19 414.58 389.75 422.75 C 379.31 430.92 369.29 437.87 357.30 444.30 C 345.32 450.74 333.60 455.78 319.93 459.93 C 306.25 464.07 290.14 467.82 274.98 468.98 C 259.81 470.13 240.93 469.51 225.93 467.07 C 210.92 464.63 196.32 462.77 182.32 456.68 C 168.32 450.59 157.96 444.21 142.93 449.93 C 127.89 455.64 116.67 455.76 100.93 460.93 C 85.18 466.09 75.54 466.74 57.98 471.98 C 40.41 477.21 39.20 455.77 45.78 442.78 C 52.35 429.78 51.62 413.47 56.99 399.99 C 62.36 386.51 63.70 371.54 69.00 358.00 Z"/>
</g>
<g fill="#CFD8DC" fill-opacity="0.95" stroke="None">
<path d="
M 69.00 358.00 
C 63.70 371.54 62.36 386.51 56.99 399.99 C 51.62 413.47 52.35 429.78 45.78 442.78 C 39.20 455.77 40.41 477.21 57.98 471.98 C 75.54 466.74 85.18 466.09 100.93 460.93 C 116.67 455.76 127.89 455.64 142.93 449.93 C 157.96 444.21 168.32 450.59 182.32 456.68 C 196.32 462.77 210.92 464.63 225.93 467.07 C 240.93 469.51 259.81 470.13 274.98 468.98 C 290.14 467.82 306.25 464.07 319.93 459.93 C 333.60 455.78 345.32 450.74 357.30 444.30 C 369.29 437.87 379.31 430.92 389.75 422.75 C 400.19 414.58 408.75 406.43 417.25 396.25 C 425.74 386.07 432.95 377.36 439.70 365.70 C 446.44 354.03 452.39 342.30 457.07 329.07 C 461.76 315.85 465.65 301.65 468.00 287.00 C 470.35 272.35 470.29 250.98 469.00 236.00 C 467.70 221.02 464.32 205.57 459.98 192.02 C 455.63 178.48 451.11 165.63 444.25 153.75 C 437.40 141.86 431.00 131.75 422.75 121.25 C 414.51 110.75 406.08 103.67 396.25 94.75 C 386.42 85.84 376.82 78.59 365.23 71.77 C 353.64 64.95 342.38 59.47 329.07 54.93 C 315.76 50.38 300.72 45.90 286.00 44.00 C 271.28 42.10 249.90 41.11 235.01 43.01 C 220.11 44.90 204.57 47.65 191.07 52.07 C 177.58 56.50 165.26 61.84 153.23 68.23 C 141.20 74.62 132.23 81.66 121.75 89.75 C 111.26 97.84 102.91 106.12 94.25 116.25 C 85.59 126.38 78.55 136.12 71.77 147.77 C 64.99 159.42 59.31 170.56 54.93 183.93 C 50.54 197.29 45.62 212.24 44.00 227.00 C 42.38 241.76 41.98 261.79 43.22 276.78 C 44.47 291.76 48.27 307.59 52.68 321.32 C 57.08 335.06 61.27 346.36 69.00 358.00
M 52.00 462.00 
C 57.43 441.46 62.84 421.24 68.78 400.78 C 74.71 380.31 83.94 360.03 72.23 340.77 C 60.52 321.51 59.06 300.71 55.00 279.00 C 50.95 257.29 55.23 228.01 59.78 207.78 C 64.32 187.54 72.07 168.70 82.75 151.75 C 93.44 134.81 102.69 121.45 117.75 107.75 C 132.81 94.05 146.13 84.82 164.23 75.23 C 182.33 65.63 202.19 60.15 223.02 56.02 C 243.86 51.90 274.37 52.58 295.00 57.00 C 315.63 61.42 335.22 68.01 353.08 77.92 C 370.93 87.84 383.75 97.37 398.25 111.75 C 412.74 126.13 422.07 138.16 432.30 155.70 C 442.54 173.24 449.23 192.65 453.98 213.02 C 458.72 233.40 460.58 263.92 457.00 285.00 C 453.42 306.08 447.34 325.90 438.23 344.23 C 429.12 362.56 419.97 376.45 406.70 391.70 C 393.42 406.94 380.11 416.93 363.31 427.31 C 346.50 437.68 328.74 446.90 308.77 451.77 C 288.80 456.64 258.81 460.91 237.00 458.00 C 215.19 455.09 194.30 451.71 174.77 441.23 C 155.24 430.75 135.11 439.86 114.33 445.33 C 93.55 450.80 72.89 456.75 52.00 462.00 Z"/>
</g>
<g fill="#FEFEFE" fill-opacity="1.00" stroke="None">
<path d="
M 52.00 462.00 
C 72.89 456.75 93.55 450.80 114.33 445.33 C 135.11 439.86 155.24 430.75 174.77 441.23 C 194.30 451.71 215.19 455.09 237.00 458.00 C 258.81 460.91 288.80 456.64 308.77 451.77 C 328.74 446.90 346.50 437.68 363.31 427.31 C 380.11 416.93 393.42 406.94 406.70 391.70 C 419.97 376.45 429.12 362.56 438.23 344.23 C 447.34 325.90 453.42 306.08 457.00 285.00 C 460.58 263.92 458.72 233.40 453.98 213.02 C 449.23 192.65 442.54 173.24 432.30 155.70 C 422.07 138.16 412.74 126.13 398.25 111.75 C 383.75 97.37 370.93 87.84 353.08 77.92 C 335.22 68.01 315.63 61.42 295.00 57.00 C 274.37 52.58 243.86 51.90 223.02 56.02 C 202.19 60.15 182.33 65.63 164.23 75.23 C 146.13 84.82 132.81 94.05 117.75 107.75 C 102.69 121.45 93.44 134.81 82.75 151.75 C 72.07 168.70 64.32 187.54 59.78 207.78 C 55.23 228.01 50.95 257.29 55.00 279.00 C 59.06 300.71 60.52 321.51 72.23 340.77 C 83.94 360.03 74.71 380.31 68.78 400.78 C 62.84 421.24 57.43 441.46 52.00 462.00
M 165.00 397.00 
C 143.73 402.84 122.25 408.02 101.00 414.00
C 103.94 396.30 110.69 379.10 114.78 361.78 C 118.86 344.46 104.19 332.36 98.68 315.32 C 93.16 298.28 88.08 279.07 88.00 260.00 C 87.92 240.93 90.55 218.51 96.78 201.78 C 103.00 185.04 109.37 171.34 119.75 157.75 C 130.13 144.17 138.29 134.35 151.75 123.75 C 165.22 113.15 177.92 105.55 194.22 99.22 C 210.53 92.90 230.77 87.96 249.01 87.01 C 267.25 86.05 290.52 89.84 307.02 94.98 C 323.53 100.11 338.02 107.71 351.75 117.25 C 365.47 126.80 376.16 136.04 386.75 149.25 C 397.35 162.45 404.44 174.34 411.77 190.23 C 419.10 206.12 422.28 226.92 424.00 245.00 C 425.72 263.08 423.03 287.00 417.68 303.68 C 412.32 320.35 406.17 334.76 396.70 348.70 C 387.22 362.63 378.01 372.80 365.25 384.25 C 352.49 395.69 339.77 402.67 323.92 409.92 C 308.08 417.18 290.37 422.16 271.98 423.98 C 253.58 425.79 227.93 423.16 210.93 418.07 C 193.92 412.99 179.20 407.21 165.00 397.00 Z"/>
</g>
<g fill="#41C352" fill-opacity="1.00" stroke="None">
<path d="
M 165.00 397.00 
C 179.20 407.21 193.92 412.99 210.93 418.07 C 227.93 423.16 253.58 425.79 271.98 423.98 C 290.37 422.16 308.08 417.18 323.92 409.92 C 339.77 402.67 352.49 395.69 365.25 384.25 C 378.01 372.80 387.22 362.63 396.70 348.70 C 406.17 334.76 412.32 320.35 417.68 303.68 C 423.03 287.00 425.72 263.08 424.00 245.00 C 422.28 226.92 419.10 206.12 411.77 190.23 C 404.44 174.34 397.35 162.45 386.75 149.25 C 376.16 136.04 365.47 126.80 351.75 117.25 C 338.02 107.71 323.53 100.11 307.02 94.98 C 290.52 89.84 267.25 86.05 249.01 87.01 C 230.77 87.96 210.53 92.90 194.22 99.22 C 177.92 105.55 165.22 113.15 151.75 123.75 C 138.29 134.35 130.13 144.17 119.75 157.75 C 109.37 171.34 103.00 185.04 96.78 201.78 C 90.55 218.51 87.92 240.93 88.00 260.00 C 88.08 279.07 93.16 298.28 98.68 315.32 C 104.19 332.36 118.86 344.46 114.78 361.78 C 110.69 379.10 103.94 396.30 101.00 414.00
C 122.25 408.02 143.73 402.84 165.00 397.00
M 199.00 163.00 
C 208.41 165.86 208.06 182.66 212.98 190.02 C 217.89 197.39 223.74 212.26 219.69 220.69 C 215.65 229.13 201.67 236.73 206.92 246.08 C 212.18 255.42 217.87 262.21 224.75 270.25 C 231.63 278.29 238.71 283.94 247.08 289.92 C 255.46 295.90 263.52 300.15 273.23 304.77 C 282.94 309.39 292.16 302.00 297.25 291.25 C 302.35 280.51 313.88 279.61 323.70 286.31 C 333.51 293.00 341.92 293.95 352.08 299.92 C 362.23 305.90 359.21 320.82 354.08 330.08 C 348.94 339.33 341.12 343.83 331.77 348.77 C 322.42 353.72 306.40 353.75 295.98 351.02 C 285.55 348.30 273.89 344.80 263.98 341.02 C 254.06 337.25 245.10 331.97 236.25 326.75 C 227.41 321.52 220.37 315.07 212.75 308.25 C 205.14 301.43 198.67 295.81 192.25 287.75 C 185.82 279.69 180.41 272.31 174.25 263.75 C 168.08 255.20 163.71 246.96 159.08 236.92 C 154.45 226.88 152.45 213.44 154.00 202.00 C 155.55 190.55 160.25 182.46 167.25 173.25 C 174.25 164.04 186.78 159.29 199.00 163.00 Z"/>
</g>
<g fill="#FEFEFE" fill-opacity="1.00" stroke="None">
<path d="
M 199.00 163.00 
C 186.78 159.29 174.25 164.04 167.25 173.25 C 160.25 182.46 155.55 190.55 154.00 202.00 C 152.45 213.44 154.45 226.88 159.08 236.92 C 163.71 246.96 168.08 255.20 174.25 263.75 C 180.41 272.31 185.82 279.69 192.25 287.75 C 198.67 295.81 205.14 301.43 212.75 308.25 C 220.37 315.07 227.41 321.52 236.25 326.75 C 245.10 331.97 254.06 337.25 263.98 341.02 C 273.89 344.80 285.55 348.30 295.98 351.02 C 306.40 353.75 322.42 353.72 331.77 348.77 C 341.12 343.83 348.94 339.33 354.08 330.08 C 359.21 320.82 362.23 305.90 352.08 299.92 C 341.92 293.95 333.51 293.00 323.70 286.31 C 313.88 279.61 302.35 280.51 297.25 291.25 C 292.16 302.00 282.94 309.39 273.23 304.77 C 263.52 300.15 255.46 295.90 247.08 289.92 C 238.71 283.94 231.63 278.29 224.75 270.25 C 217.87 262.21 212.18 255.42 206.92 246.08 C 201.67 236.73 215.65 229.13 219.69 220.69 C 223.74 212.26 217.89 197.39 212.98 190.02 C 208.06 182.66 208.41 165.86 199.00 163.00 Z"/>
</g>
</svg>